<?xml version="1.0" standalone="no"?>
<!DOCTYPE svg PUBLIC "-//W3C//DTD SVG 20010904//EN"
 "http://www.w3.org/TR/2001/REC-SVG-20010904/DTD/svg10.dtd">
<svg version="1.0" xmlns="http://www.w3.org/2000/svg"
 width="385.000000pt" height="385.000000pt" viewBox="0 0 385.000000 385.000000"
 preserveAspectRatio="xMidYMid meet">
<metadata>
Created by potrace 1.14, written by Peter Selinger 2001-2017
</metadata>
<g transform="translate(0.000000,385.000000) scale(0.100000,-0.100000)"
fill="#000000" stroke="none">
<path d="M1760 3844 c-8 -1 -55 -8 -105 -14 -349 -46 -709 -209 -989 -450
-115 -98 -305 -316 -357 -410 -8 -14 -16 -27 -19 -30 -11 -11 -53 -89 -101
-187 -84 -174 -155 -416 -177 -607 -9 -79 -8 -374 1 -449 74 -595 416 -1119
933 -1429 172 -103 424 -199 609 -232 17 -3 40 -8 52 -10 100 -20 455 -29 548
-13 22 4 58 10 80 13 22 4 49 8 60 11 11 2 34 7 50 9 142 25 443 145 565 224
180 118 259 180 367 288 171 170 289 336 389 547 40 84 117 298 128 355 2 14
12 58 20 98 24 109 30 190 31 367 0 176 -6 240 -36 390 -122 607 -554 1135
-1129 1380 -79 34 -273 97 -337 110 -34 7 -124 22 -178 30 -41 7 -378 14 -405
9z"/>
</g>
</svg>
